<svg width="138" height="41" viewBox="0 0 138 41" fill="none" xmlns="http://www.w3.org/2000/svg">
<path fill-rule="evenodd" clip-rule="evenodd" d="M85.487 32.0948C77.4502 37.9076 65.7968 41 55.7631 41C41.6998 41 29.0368 35.906 19.4535 27.4251C18.7014 26.7597 19.3725 25.849 20.2769 26.3651C30.616 32.2613 43.4017 35.8118 56.6077 35.8118C65.5157 35.8118 75.3088 34.001 84.3189 30.2544C85.678 29.6898 86.8171 31.1332 85.487 32.0948Z" fill="#929DC5"/>
<path fill-rule="evenodd" clip-rule="evenodd" d="M89.227 28.288C88.2061 27.048 82.4801 27.7007 79.9081 27.9924C79.1291 28.0801 79.0084 27.4359 79.7107 26.9677C84.2783 23.9227 91.7617 24.8027 92.632 25.8205C93.5084 26.8498 92.4028 33.9695 88.1221 37.3682C87.463 37.8911 86.837 37.612 87.1293 36.9222C88.0914 34.6394 90.2486 29.5285 89.227 28.288Z" fill="#929DC5"/>
<path fill-rule="evenodd" clip-rule="evenodd" d="M80.058 4.58587V1.46437C80.0604 0.989499 80.4244 0.67272 80.8617 0.67272L95.0784 0.672119C95.5334 0.67272 95.898 0.997915 95.8992 1.46076L95.898 4.13805C95.8943 4.58707 95.5102 5.17315 94.828 6.10365L87.4637 16.4516C90.1974 16.3878 93.0886 16.7906 95.5719 18.1647C96.1325 18.4743 96.2828 18.9335 96.3267 19.3831V22.7144C96.3267 23.1724 95.8168 23.7044 95.2805 23.4285C90.9046 21.172 85.0978 20.9255 80.2595 23.4556C79.7648 23.7152 79.2475 23.1911 79.2475 22.7324V19.5652C79.2475 19.0591 79.2573 18.1923 79.7764 17.4199L88.3078 5.37331L80.88 5.37211C80.4256 5.37211 80.0616 5.05353 80.058 4.58587Z" fill="#929DC5"/>
<path fill-rule="evenodd" clip-rule="evenodd" d="M28.2498 23.5246H23.9898C23.585 23.4979 23.2608 23.1974 23.2277 22.8132L23.2307 1.2321C23.2307 0.799829 23.5989 0.45484 24.053 0.45484L28.02 0.453652C28.4351 0.474435 28.7683 0.784984 28.7948 1.17866V3.99618H28.8742C29.9082 1.27129 31.8565 0 34.4809 0C37.145 0 38.8148 1.27129 40.0082 3.99618C41.0416 1.27129 43.3876 0 45.8923 0C47.6824 0 49.6307 0.7262 50.8229 2.36148C52.1751 4.17787 51.8972 6.81131 51.8972 9.12826L51.8942 22.7473C51.8942 23.1778 51.5255 23.5246 51.0719 23.5246H46.8174C46.3903 23.4967 46.0529 23.1624 46.0529 22.7485L46.0517 11.308C46.0517 10.3996 46.1311 8.12892 45.9326 7.26615C45.6144 5.81316 44.6604 5.40404 43.4279 5.40404C42.3938 5.40404 41.3201 6.08571 40.8822 7.1753C40.4449 8.26549 40.4852 10.0813 40.4852 11.308V22.7473C40.4852 23.1778 40.1171 23.5246 39.6636 23.5246H35.4084C34.9814 23.4967 34.6439 23.1624 34.6439 22.7485L34.6397 11.308C34.6397 8.90144 35.0373 5.35891 32.0159 5.35891C28.9536 5.35891 29.0733 8.80999 29.0733 11.308L29.0715 22.7473C29.0721 23.1778 28.7033 23.5246 28.2498 23.5246Z" fill="#929DC5"/>
<path fill-rule="evenodd" clip-rule="evenodd" d="M107.218 4.32184C104.108 4.32184 103.912 8.46484 103.912 11.049C103.912 13.6331 103.873 19.1579 107.179 19.1579C110.446 19.1579 110.604 14.7027 110.604 11.9851C110.604 10.2026 110.524 8.06348 109.974 6.37062C109.501 4.90088 108.556 4.32184 107.218 4.32184ZM107.179 0C113.438 0 116.822 5.2574 116.822 11.9403C116.822 18.4006 113.084 23.5246 107.179 23.5246C101.039 23.5246 97.6931 18.2672 97.6931 11.7171C97.6931 5.12341 101.078 0 107.179 0Z" fill="#929DC5"/>
<path fill-rule="evenodd" clip-rule="evenodd" d="M125.329 23.5246H121.021C120.588 23.4967 120.244 23.1624 120.244 22.7485L120.238 1.15907C120.274 0.764796 120.633 0.45484 121.069 0.45484L125.08 0.453652C125.458 0.472059 125.769 0.723231 125.848 1.05872V4.35898H125.93C127.141 1.40787 128.836 0 131.823 0C133.76 0 135.658 0.681072 136.869 2.54318C138 4.26872 138 7.1753 138 9.26424V22.8447C137.951 23.2277 137.598 23.5246 137.171 23.5246H132.836C132.435 23.4991 132.113 23.2123 132.066 22.8447V11.1264C132.066 8.76427 132.348 5.31319 129.361 5.31319C128.311 5.31319 127.342 5.99426 126.858 7.03873C126.253 8.35575 126.171 9.67276 126.171 11.1264V22.7473C126.164 23.1778 125.79 23.5246 125.329 23.5246Z" fill="#929DC5"/>
<path fill-rule="evenodd" clip-rule="evenodd" d="M72.9762 23.1793C72.6916 23.4235 72.2836 23.4403 71.9627 23.2758C70.5394 22.1389 70.2839 21.614 69.506 20.5317C67.1521 22.8341 65.4854 23.5246 62.4372 23.5246C58.8277 23.5246 56.0198 21.3856 56.0198 17.1093C56.0198 13.767 57.9051 11.4949 60.5919 10.3806C62.9185 9.40065 66.1671 9.22279 68.6535 8.95541V8.42065C68.6535 7.44066 68.7335 6.28221 68.1323 5.43591C67.611 4.67795 66.6079 4.36639 65.7252 4.36639C64.0906 4.36639 62.637 5.17085 62.2798 6.83848C62.2053 7.20874 61.9238 7.57551 61.5351 7.59469L57.3796 7.16282C57.0284 7.08667 56.6385 6.81697 56.7396 6.30256C57.695 1.46244 62.2471 0 66.3276 0C68.4132 0 71.1406 0.534755 72.7849 2.04951C74.8705 3.92057 74.6695 6.4159 74.6695 9.13386V15.5469C74.6695 17.4755 75.5044 18.3218 76.2884 19.3616C76.5614 19.736 76.6232 20.1812 76.2739 20.4544C75.3978 21.1595 73.8419 22.4574 72.9859 23.1886L72.9762 23.1793ZM68.6535 13.1434C68.6535 14.7476 68.6935 16.0839 67.8514 17.5098C67.1691 18.6688 66.0866 19.3808 64.8836 19.3808C63.2387 19.3808 62.2761 18.177 62.2761 16.3961C62.2761 12.8905 65.5514 12.2523 68.6535 12.2523V13.1434Z" fill="#929DC5"/>
<path fill-rule="evenodd" clip-rule="evenodd" d="M16.9564 23.1793C16.6725 23.4235 16.2632 23.4403 15.9436 23.2758C14.519 22.1389 14.2642 21.614 13.4856 20.5317C11.1324 22.8341 9.46504 23.5246 6.41739 23.5246C2.80731 23.5246 0 21.3856 0 17.1093C0 13.767 1.88526 11.4949 4.57209 10.3806C6.89809 9.40065 10.1473 9.22279 12.6338 8.95541V8.42065C12.6338 7.44066 12.7137 6.28221 12.1125 5.43591C11.5907 4.67795 10.5881 4.36639 9.706 4.36639C8.07078 4.36639 6.61657 5.17085 6.25998 6.83848C6.18552 7.20874 5.904 7.57551 5.51532 7.59469L1.35976 7.16282C1.00862 7.08667 0.618128 6.81697 0.719837 6.30256C1.67458 1.46244 6.22729 0 10.3078 0C12.3928 0 15.1202 0.534755 16.7651 2.04951C18.8502 3.92057 18.6498 6.4159 18.6498 9.13386V15.5469C18.6498 17.4755 19.484 18.3218 20.2681 19.3616C20.5417 19.736 20.6035 20.1812 20.2541 20.4544C19.3787 21.1595 17.8222 22.4574 16.9661 23.1886L16.9564 23.1793ZM12.6338 13.1434C12.6338 14.7476 12.6737 16.0839 11.8316 17.5098C11.1499 18.6688 10.0668 19.3808 8.86326 19.3808C7.21956 19.3808 6.25696 18.177 6.25696 16.3961C6.25696 12.8905 9.53225 12.2523 12.6338 12.2523V13.1434Z" fill="#929DC5"/>
</svg>
