<svg width="40" height="32" viewBox="0 0 40 32" fill="none" xmlns="http://www.w3.org/2000/svg">
<path fill-rule="evenodd" clip-rule="evenodd" d="M37.6 0.799988H2.4C1.0751 0.801399 0.00141097 1.87509 0 3.19999V28.8C0.00141097 30.1249 1.0751 31.1986 2.4 31.2H6.4L10.48 25.76C10.9333 25.1557 11.6446 24.8 12.4 24.8H27.6C28.3554 24.8 29.0667 25.1557 29.52 25.76L33.6 31.2H37.6C38.9249 31.1986 39.9986 30.1249 40 28.8V3.19999C39.9986 1.87509 38.9249 0.801399 37.6 0.799988ZM7.2 21.6H4C3.55817 21.6 3.2 21.2418 3.2 20.8C3.2 20.3582 3.55817 20 4 20H7.2C7.64183 20 8 20.3582 8 20.8C8 21.2418 7.64183 21.6 7.2 21.6ZM4 15.2H7.2C7.64183 15.2 8 14.8418 8 14.4C8 13.9582 7.64183 13.6 7.2 13.6H4C3.55817 13.6 3.2 13.9582 3.2 14.4C3.2 14.8418 3.55817 15.2 4 15.2ZM7.2 8.79999H4C3.55817 8.79999 3.2 8.44182 3.2 7.99999C3.2 7.55816 3.55817 7.19999 4 7.19999H7.2C7.64183 7.19999 8 7.55816 8 7.99999C8 8.44182 7.64183 8.79999 7.2 8.79999ZM27.2 21.6C28.0837 21.6 28.8 20.8836 28.8 20V8.79999C28.8 7.91633 28.0837 7.19999 27.2 7.19999H12.8C11.9163 7.19999 11.2 7.91633 11.2 8.79999V20C11.2 20.8836 11.9163 21.6 12.8 21.6H27.2ZM36 21.6H32.8C32.3582 21.6 32 21.2418 32 20.8C32 20.3582 32.3582 20 32.8 20H36C36.4418 20 36.8 20.3582 36.8 20.8C36.8 21.2418 36.4418 21.6 36 21.6ZM32.8 15.2H36C36.4418 15.2 36.8 14.8418 36.8 14.4C36.8 13.9582 36.4418 13.6 36 13.6H32.8C32.3582 13.6 32 13.9582 32 14.4C32 14.8418 32.3582 15.2 32.8 15.2ZM36 8.79999H32.8C32.3582 8.79999 32 8.44182 32 7.99999C32 7.55816 32.3582 7.19999 32.8 7.19999H36C36.4418 7.19999 36.8 7.55816 36.8 7.99999C36.8 8.44182 36.4418 8.79999 36 8.79999ZM30.4 29.6L28.24 26.72C28.0886 26.519 27.8517 26.4005 27.6 26.4H12.4C12.1483 26.4005 11.9114 26.519 11.76 26.72L9.6 29.6H30.4Z" fill="#1FDB84"/>
</svg>
