<svg width="40" height="34" viewBox="0 0 40 34" fill="none" xmlns="http://www.w3.org/2000/svg">
<path fill-rule="evenodd" clip-rule="evenodd" d="M37.6 30.6C38.9255 30.6 40 29.5255 40 28.2V2.60001C40 1.27453 38.9255 0.200012 37.6 0.200012H2.4C1.07452 0.200012 0 1.27453 0 2.60001V28.2C0 29.5255 1.07452 30.6 2.4 30.6H3.2V32.2C3.2 33.0837 3.91634 33.8 4.8 33.8H8C8.88366 33.8 9.6 33.0837 9.6 32.2V30.6H30.4V32.2C30.4 33.0837 31.1163 33.8 32 33.8H35.2C36.0837 33.8 36.8 33.0837 36.8 32.2V30.6H37.6ZM31.919 16.2H28C27.5582 16.2 27.2 15.8418 27.2 15.4C27.2 14.9582 27.5582 14.6 28 14.6H31.919C31.4945 10.8029 28.1779 7.99857 24.363 8.21117C20.5481 8.42376 17.5636 11.5792 17.5636 15.4C17.5636 19.2208 20.5481 22.3763 24.363 22.5889C28.1779 22.8015 31.4945 19.9972 31.919 16.2ZM8 32.2V30.6H4.8V32.2H8ZM7.2 5.00001C7.64183 5.00001 8 5.35818 8 5.80001V25C8 25.4418 7.64183 25.8 7.2 25.8C6.75817 25.8 6.4 25.4418 6.4 25V22.6H5.6C5.15817 22.6 4.8 22.2418 4.8 21.8C4.8 21.3582 5.15817 21 5.6 21H6.4V16.2H5.6C5.15817 16.2 4.8 15.8418 4.8 15.4C4.8 14.9582 5.15817 14.6 5.6 14.6H6.4V9.80001H5.6C5.15817 9.80001 4.8 9.44184 4.8 9.00001C4.8 8.55818 5.15817 8.20001 5.6 8.20001H6.4V5.80001C6.4 5.35818 6.75817 5.00001 7.2 5.00001ZM33.6 15.4C33.6 10.5399 29.6601 6.60001 24.8 6.60001C19.9399 6.60001 16 10.5399 16 15.4C16 20.2601 19.9399 24.2 24.8 24.2C29.6601 24.2 33.6 20.2601 33.6 15.4ZM32 32.2V30.6H35.2V32.2H32Z" fill="#1FDB84"/>
</svg>
