<svg width="39" height="26" viewBox="0 0 39 26" fill="none" xmlns="http://www.w3.org/2000/svg">
<path fill-rule="evenodd" clip-rule="evenodd" d="M0.599976 0.8C0.599976 0.358172 0.958148 0 1.39998 0H11.8L13.9032 2.1032C15.8506 1.76592 17.8236 1.59756 19.8 1.6C27.7864 1.6 34.6297 4.24224 37.5238 8H2.07614C3.14007 6.69125 4.45303 5.60654 5.93902 4.80864L3.79998 1.6H1.39998C0.958148 1.6 0.599976 1.24183 0.599976 0.8ZM38.4656 14.4C38.8083 13.6457 38.9903 12.8284 39 12C38.9903 11.1716 38.8083 10.3543 38.4656 9.6H1.13438C0.421873 11.1207 0.421873 12.8793 1.13438 14.4H38.4656ZM19.8 22.4C27.7864 22.4 34.6297 19.7578 37.5238 16H2.07614C3.14007 17.3087 4.45303 18.3935 5.93902 19.1914L3.79998 22.4H1.39998C0.958148 22.4 0.599976 22.7582 0.599976 23.2C0.599976 23.6418 0.958148 24 1.39998 24H11.8L13.9032 21.8968C15.8506 22.2341 17.8236 22.4024 19.8 22.4ZM7.37694 19.9192L5.72302 22.4H11.1373L12.0318 21.5054C10.4322 21.1296 8.87317 20.5984 7.37694 19.9192ZM20.6 24H27C27.4418 24 27.8 24.3582 27.8 24.8C27.8 25.2418 27.4418 25.6 27 25.6H20.6C20.1581 25.6 19.8 25.2418 19.8 24.8C19.8 24.3582 20.1581 24 20.6 24ZM7.37694 4.0808L5.72302 1.6H11.1373L12.0318 2.4944C10.4322 2.87025 8.87316 3.40158 7.37694 4.0808Z" fill="#1FDB84"/>
</svg>
