<svg width="153" height="29" viewBox="0 0 153 29" fill="none" xmlns="http://www.w3.org/2000/svg">
<path fill-rule="evenodd" clip-rule="evenodd" d="M4.98983 0H24.2456C25.5138 0.126796 26.7343 0.683822 27.6325 1.58451C28.4598 2.40912 29.0176 3.50014 29.1778 4.655C29.2616 5.24992 29.2354 5.85154 29.2383 6.45083C29.2375 9.12024 29.2413 11.7891 29.2369 14.4579C29.2466 15.3219 28.8016 16.1765 28.0707 16.6496C27.1681 17.2594 25.8797 17.2148 25.0224 16.5414C24.5489 16.1852 24.208 15.6571 24.0795 15.0817C23.9611 14.58 24.0128 14.0609 23.9531 13.5528C23.7271 11.2245 22.5633 9.00598 20.7814 7.47657C19.0879 5.99466 16.8369 5.1581 14.5792 5.18025C12.6271 5.17209 10.685 5.81161 9.10825 6.9484C7.23405 8.2866 5.8874 10.3331 5.42128 12.5767C5.08476 14.1597 5.17088 15.8293 5.67844 17.366C6.38145 19.5262 7.91473 21.4072 9.89591 22.5434C11.0662 23.2257 12.3902 23.6411 13.7398 23.7673C14.2268 23.8163 14.7235 23.7702 15.2043 23.8816C15.8738 24.027 16.4757 24.4573 16.8346 25.0356C17.2625 25.7194 17.3439 26.6037 17.0433 27.3529C16.6709 28.3439 15.6352 29.0201 14.573 28.998C11.577 29.0024 8.58247 28.998 5.58675 28.9995C4.75795 28.9995 3.92562 28.8482 3.17412 28.4952C1.41425 27.7073 0.17105 25.9465 0 24.0416V4.95027C0.123438 3.71234 0.658042 2.51084 1.54885 1.62881C2.44848 0.694315 3.69814 0.125338 4.98983 0Z" fill="#929DC5"/>
<path fill-rule="evenodd" clip-rule="evenodd" d="M13.3866 8.15814C14.6135 7.97922 15.9005 8.16892 17.0091 8.72808C18.3592 9.38338 19.4424 10.5593 19.983 11.9512C20.5087 13.2746 20.5358 14.782 20.073 16.1268C19.6199 17.4647 18.6711 18.6292 17.4528 19.3551C16.2161 20.1111 14.6978 20.3884 13.2694 20.1488C11.7737 19.9092 10.3815 19.088 9.45531 17.8991C8.72634 16.9738 8.27181 15.8339 8.18233 14.662C8.04998 13.1597 8.51023 11.6155 9.45016 10.4303C10.4004 9.20644 11.8449 8.37449 13.3866 8.15814Z" fill="#929DC5"/>
<path fill-rule="evenodd" clip-rule="evenodd" d="M21.4019 19.5828C22.2432 19.4658 23.1293 19.771 23.7202 20.3736C24.6089 21.2604 24.7368 22.7695 24.0045 23.7896C23.3342 24.7876 21.9487 25.217 20.8183 24.7876C19.9499 24.4797 19.2714 23.7052 19.0918 22.8094C18.9677 22.155 19.0632 21.4472 19.4154 20.8725C19.8314 20.1737 20.5855 19.6791 21.4019 19.5828Z" fill="#929DC5"/>
<path fill-rule="evenodd" clip-rule="evenodd" d="M25.5078 24.283C26.0601 24.1567 26.672 24.2596 27.1278 24.5981C27.7285 25.0201 28.0401 25.8042 27.8868 26.5147C27.789 27.0427 27.4505 27.5194 26.9836 27.7931C26.3438 28.1726 25.4787 28.1521 24.8668 27.7269C24.2369 27.3107 23.9124 26.5075 24.0648 25.7791C24.194 25.06 24.7837 24.4452 25.5078 24.283Z" fill="#929DC5"/>
<path fill-rule="evenodd" clip-rule="evenodd" d="M150.977 6.42369C150.304 6.53699 149.791 7.18501 149.82 7.85269C149.817 8.35503 150.119 8.83454 150.563 9.0782C150.895 9.26492 151.312 9.29353 151.673 9.17879C152.266 8.98542 152.683 8.37844 152.645 7.76453C152.636 7.24889 152.307 6.76417 151.84 6.53612C151.576 6.40692 151.265 6.3708 150.977 6.42369ZM150.93 6.2494C151.359 6.17281 151.825 6.25663 152.178 6.5156C152.433 6.70839 152.654 6.96187 152.762 7.26507C152.932 7.73852 152.883 8.30069 152.586 8.71748C152.404 8.97646 152.148 9.19121 151.849 9.3129C151.552 9.43314 151.218 9.44817 150.903 9.39498C150.163 9.25885 149.573 8.55591 149.606 7.8102C149.591 7.06593 150.187 6.36993 150.93 6.2494Z" fill="#9CB9E2"/>
<path fill-rule="evenodd" clip-rule="evenodd" d="M37.3086 8.08216C38.2726 7.66019 39.3306 7.54429 40.3679 7.4677C41.6715 7.39669 42.9939 7.36734 44.2794 7.62968C45.0188 7.78637 45.8125 8.09712 46.2028 8.80108C46.7699 9.82635 46.7926 11.0459 46.7984 12.1926C45.9246 12.1956 45.0511 12.1941 44.1782 12.1926C44.181 11.5661 44.2105 10.8918 43.8956 10.3296C43.6835 9.95693 43.2369 9.8645 42.8541 9.7929C42.1138 9.68579 41.3602 9.67406 40.6135 9.7166C39.9957 9.75857 39.3517 9.7973 38.7832 10.0758C38.4678 10.2222 38.3254 10.5693 38.2522 10.8933C38.0628 11.6938 38.0481 12.5233 38.0218 13.3426C38.0187 14.7464 38.0161 16.1546 38.1876 17.5496C38.2588 17.9496 38.2896 18.3947 38.5586 18.7157C38.9371 19.0729 39.4756 19.1624 39.9686 19.234C40.8981 19.3402 41.8431 19.3358 42.7733 19.2161C43.2245 19.1371 43.7584 19.0415 44.0144 18.6039C44.3814 17.9619 44.3226 17.1852 44.305 16.4712C45.1736 16.4786 46.0419 16.4786 46.9114 16.4712C46.9385 17.4927 46.9166 18.5353 46.6188 19.5195C46.4602 20.0359 46.189 20.5453 45.7289 20.8441C45.2359 21.1574 44.6579 21.2874 44.0931 21.3904C42.9434 21.5832 41.7733 21.5938 40.6129 21.5744C39.6134 21.5339 38.6004 21.4562 37.6439 21.1398C37.054 20.935 36.4437 20.6078 36.1592 20.0136C35.8562 19.3892 35.73 18.6964 35.6273 18.0153C35.4278 16.6027 35.388 15.1751 35.3609 13.7517C35.3558 12.3511 35.3529 10.898 35.8825 9.58162C36.1416 8.91611 36.6507 8.35095 37.3086 8.08216Z" fill="#929DC5"/>
<path fill-rule="evenodd" clip-rule="evenodd" d="M68.866 7.96605C69.7137 7.65852 70.6162 7.54408 71.5103 7.47629C72.6351 7.40469 73.7694 7.38004 74.8914 7.51825C75.81 7.64737 76.8745 7.86451 77.4207 8.71139C78.059 9.74548 78.0429 11.0167 78.0824 12.194C77.2079 12.194 76.3333 12.1925 75.4608 12.194C75.4577 11.5892 75.4784 10.9501 75.2071 10.3943C75.069 10.0944 74.7602 9.93681 74.4577 9.86286C73.8136 9.7044 73.1443 9.69706 72.4849 9.69325C71.7116 9.72259 70.9132 9.73052 70.1808 10.0152C69.8792 10.1249 69.66 10.3908 69.577 10.7021C69.3593 11.4489 69.3357 12.2359 69.3019 13.0103C69.2967 14.4059 69.2777 15.8021 69.4164 17.1939C69.4692 17.6285 69.5118 18.0751 69.6797 18.483C69.8492 18.8636 70.269 19.0159 70.6358 19.1207C71.4489 19.3237 72.2955 19.3146 73.1276 19.2967C73.7175 19.258 74.3323 19.2369 74.879 18.9831C75.3022 18.7844 75.4718 18.2917 75.5401 17.8542C75.6237 17.397 75.573 16.9328 75.5871 16.4712C76.4565 16.4817 77.3267 16.4741 78.1983 16.4741C78.207 17.4255 78.1911 18.3918 77.9518 19.3179C77.7992 19.8748 77.5556 20.4529 77.0744 20.7962C76.5753 21.1399 75.9752 21.2816 75.3896 21.3875C74.2172 21.5832 73.0255 21.5938 71.8413 21.5744C70.8192 21.5281 69.7788 21.4503 68.8066 21.0979C68.2607 20.8978 67.7063 20.5767 67.4381 20.0286C67.114 19.3745 66.9935 18.6412 66.8859 17.9228C66.6732 16.2966 66.6311 14.6521 66.642 13.0138C66.6276 12.1678 66.6899 11.3195 66.8689 10.4932C67.0082 9.86579 67.24 9.24223 67.6541 8.7466C67.9701 8.36924 68.4147 8.13566 68.866 7.96605Z" fill="#929DC5"/>
<path fill-rule="evenodd" clip-rule="evenodd" d="M49.642 8.09444C50.4965 8.09615 51.3497 8.10041 52.2057 8.09302C52.2173 11.8185 52.2093 15.5459 52.2079 19.2716C54.2987 19.2861 56.3898 19.2716 58.48 19.2787C58.4786 20.046 58.4786 20.813 58.48 21.5814C55.5333 21.5814 52.5876 21.5814 49.64 21.5814C49.642 17.0861 49.6377 12.59 49.642 8.09444Z" fill="#929DC5"/>
<path fill-rule="evenodd" clip-rule="evenodd" d="M61.2015 8.09302C62.1062 8.09444 63.0129 8.09131 63.9194 8.09558C63.92 12.5893 63.9179 17.0851 63.92 21.5814C63.0129 21.5814 62.1062 21.5814 61.2 21.5814C61.2021 17.0851 61.2 12.5893 61.2015 8.09302Z" fill="#929DC5"/>
<path fill-rule="evenodd" clip-rule="evenodd" d="M80.9303 8.09302C81.8022 8.1061 82.6741 8.09728 83.5489 8.09899C83.5503 9.92634 83.5474 11.7534 83.5503 13.5794C83.954 13.5794 84.356 13.5794 84.7608 13.5794C86.2795 11.7534 87.7964 9.92634 89.3133 8.10155C90.4031 8.09899 91.4929 8.09728 92.5798 8.10155C90.742 10.2889 88.883 12.4608 87.0466 14.6518C89.0893 16.9568 91.1234 19.2693 93.16 21.5814C92.0364 21.5814 90.9141 21.5814 89.7905 21.5785C88.1173 19.6338 86.4473 17.6876 84.773 15.7442C84.3646 15.7442 83.9555 15.7428 83.5489 15.7442C83.5489 17.6904 83.5489 19.6338 83.5489 21.5814C82.6741 21.5814 81.7964 21.5814 80.9213 21.5814C80.9274 17.0842 80.9098 12.589 80.9303 8.09302Z" fill="#929DC5"/>
<path fill-rule="evenodd" clip-rule="evenodd" d="M122.411 8.09381C123.232 8.10263 124.057 8.08443 124.881 8.1012C125.141 8.40008 125.309 8.78283 125.537 9.1127C127.36 12.0832 129.202 15.0458 131.014 18.0242C131.498 18.7897 131.943 19.5829 132.443 20.3381C132.394 18.3427 132.431 16.3482 132.42 14.3525C132.414 12.2729 132.431 10.193 132.411 8.11201C132.925 8.07561 133.441 8.10405 133.957 8.09694C133.96 12.5905 133.954 17.0835 133.96 21.5785C133.119 21.5845 132.28 21.5785 131.439 21.5814C129.659 18.7133 127.89 15.8417 126.113 12.9741C125.372 11.798 124.678 10.5926 123.925 9.42608C123.948 13.4783 123.928 17.5291 123.937 21.5814C123.423 21.5814 122.913 21.5814 122.402 21.5814C122.405 17.0864 122.391 12.5891 122.411 8.09381Z" fill="#929DC5"/>
<path fill-rule="evenodd" clip-rule="evenodd" d="M137.36 8.10183C137.887 8.09586 138.413 8.10751 138.943 8.09302C138.972 10.0465 138.954 12.0015 138.948 13.9564C139.404 13.9965 139.865 13.9638 140.321 13.9769C142.229 12.0202 144.152 10.0747 146.048 8.10751C146.743 8.09302 147.441 8.10183 148.133 8.10325C146.027 10.2881 143.868 12.4261 141.75 14.6033C142.282 15.1644 142.859 15.6865 143.415 16.2277C145.246 18.0155 147.092 19.7862 148.92 21.5769C148.18 21.5829 147.441 21.5829 146.701 21.5769C144.584 19.4722 142.445 17.3865 140.318 15.2931C139.865 15.2874 139.41 15.2903 138.957 15.2903C138.957 17.3834 138.948 19.4764 138.963 21.5684C138.428 21.5914 137.892 21.5769 137.36 21.5769C137.363 17.0841 137.36 12.5932 137.36 8.10183Z" fill="#929DC5"/>
<path fill-rule="evenodd" clip-rule="evenodd" d="M110.592 17.5426C112.57 17.55 114.549 17.5398 116.527 17.5469C115.551 14.8296 114.537 12.1223 113.545 9.40816C112.544 12.1143 111.568 14.8279 110.592 17.5426ZM112.415 8.10454C113.14 8.0835 113.866 8.09857 114.596 8.09431C116.295 12.5889 117.986 17.084 119.68 21.5783C119.137 21.5783 118.598 21.5754 118.052 21.5814C117.696 20.632 117.34 19.6798 116.998 18.7248C114.713 18.7132 112.426 18.722 110.14 18.7191C109.787 19.6727 109.446 20.6278 109.09 21.5783C108.54 21.5754 107.991 21.5783 107.44 21.5783C109.094 17.084 110.769 12.5982 112.415 8.10454Z" fill="#929DC5"/>
<path fill-rule="evenodd" clip-rule="evenodd" d="M97.5047 15.3206C97.4713 16.9675 97.4984 18.6155 97.4895 20.268C99.1112 20.2652 100.733 20.2712 102.354 20.2652C103.08 20.2319 103.854 20.2407 104.514 19.9064C105.14 19.52 105.174 18.7255 105.216 18.0861C105.206 17.4031 105.214 16.6809 104.903 16.0485C104.773 15.7417 104.44 15.5984 104.124 15.5276C103.409 15.3627 102.67 15.3539 101.936 15.328C100.46 15.3192 98.9807 15.3337 97.5047 15.3206ZM97.4925 9.40936C97.485 10.9007 97.4925 12.3909 97.4895 13.8816C97.435 14.069 97.6729 14.0011 97.7789 14.017C98.6657 14.011 99.5533 14.0153 100.44 14.0139C101.545 13.9974 102.678 14.094 103.751 13.7904C104.13 13.6906 104.436 13.4085 104.561 13.0531C104.814 12.3491 104.811 11.5822 104.733 10.8484C104.673 10.3892 104.512 9.83984 104.009 9.65816C103.245 9.38178 102.409 9.41505 101.606 9.40936C100.233 9.40936 98.8625 9.40936 97.4925 9.40936ZM95.883 8.09631C97.4305 8.09319 98.9778 8.09631 100.523 8.09461C101.648 8.10484 102.779 8.04968 103.895 8.20379C104.43 8.28852 104.991 8.40226 105.437 8.71417C105.943 9.09603 106.117 9.72696 106.222 10.3081C106.329 11.0829 106.387 11.8811 106.22 12.6536C106.088 13.2044 105.803 13.7412 105.334 14.0949C105.094 14.2851 104.805 14.3988 104.53 14.5305C105.179 14.6709 105.8 15.0067 106.176 15.5447C106.678 16.2353 106.776 17.1108 106.758 17.9297C106.722 18.8009 106.62 19.727 106.091 20.4651C105.646 21.0844 104.859 21.371 104.112 21.4867C103.228 21.6357 102.332 21.5589 101.442 21.5791C99.587 21.5763 97.7351 21.5822 95.88 21.5763C95.8863 17.0818 95.88 12.5908 95.883 8.09631Z" fill="#929DC5"/>
</svg>
