<svg width="227" height="27" viewBox="0 0 227 27" fill="none" xmlns="http://www.w3.org/2000/svg">
<path fill-rule="evenodd" clip-rule="evenodd" d="M68.3116 9.36267L73.0312 2.45757C73.9234 1.15764 75.0751 0.506434 76.4873 0.506434C77.6395 0.506434 78.6365 0.919801 79.4793 1.74456C80.3215 2.5708 80.7426 3.55872 80.7426 4.70933C80.7426 5.56029 80.5198 6.31088 80.0737 6.96159L75.8184 13.2091L81.0213 19.8699C81.5413 20.533 81.8018 21.3088 81.8018 22.1963C81.8018 23.3727 81.3929 24.3823 80.5756 25.2269C79.7574 26.0714 78.7663 26.4932 77.6023 26.4932C76.3262 26.4932 75.3542 26.0744 74.6848 25.2358L68.3116 17.2058V21.6336C68.3116 22.8975 68.0947 23.879 67.6613 24.5796C66.8681 25.8553 65.7163 26.4932 64.2052 26.4932C62.8302 26.4932 61.7646 26.0244 61.0091 25.086C60.3029 24.2226 59.9499 23.0785 59.9499 21.6524V5.23444C59.9499 3.88408 60.3088 2.77105 61.0277 1.89537C61.7832 0.969741 62.8238 0.506434 64.1494 0.506434C65.4132 0.506434 66.4656 0.969741 67.3083 1.89537C67.7789 2.40861 68.0761 2.9273 68.2 3.45291C68.2744 3.77777 68.3116 4.38397 68.3116 5.27252V9.36267ZM46.8495 0.000108459C49.934 -0.012253 52.7702 1.03204 55.3596 3.13349C57.3913 4.78449 58.4069 6.49234 58.4069 8.25558C58.4069 9.75626 57.7875 10.9202 56.5491 11.7455C55.843 12.2216 55.0742 12.4585 54.2451 12.4585C53.5635 12.4585 52.9132 12.2958 52.2938 11.9709C52.0337 11.8335 51.3893 11.2016 50.361 10.0757C49.4071 9.02496 48.2118 8.49886 46.7751 8.49886C45.3878 8.49886 44.2263 8.98441 43.291 9.95355C42.3557 10.9232 41.8881 12.1079 41.8881 13.5092C41.8881 14.8981 42.3557 16.0769 43.291 17.0466C44.2263 18.0162 45.3815 18.5003 46.7565 18.5003C47.896 18.5003 48.9551 18.1126 49.934 17.3373C50.5407 16.7494 51.142 16.162 51.7365 15.5731C52.3804 15.0099 53.1977 14.7285 54.1888 14.7285C55.3288 14.7285 56.317 15.1325 57.1528 15.9395C57.9887 16.7454 58.4069 17.725 58.4069 18.8756C58.4069 20.439 57.4966 22.0213 55.6755 23.6219C53.1238 25.8736 50.1754 27 46.8304 27C44.762 27 42.8106 26.5555 40.9778 25.6674C38.6611 24.5416 36.8185 22.8876 35.4498 20.7046C34.0807 18.5225 33.3966 16.1363 33.3966 13.5468C33.3966 9.66973 34.8211 6.36725 37.6705 3.64031C40.1845 1.23823 43.2445 0.0253258 46.8495 0.000108459ZM31.8022 5.74176V21.6336C31.8022 23.0097 31.4491 24.1415 30.743 25.0296C29.9874 26.0056 28.9405 26.4932 27.6027 26.4932C26.3761 26.4932 25.3419 26.0368 24.4996 25.124C23.7935 24.3606 23.4404 23.1971 23.4404 21.6336V5.74176C23.4404 3.96566 23.7935 2.67711 24.4996 1.87608C25.3046 0.962819 26.3393 0.506434 27.6027 0.506434C28.8661 0.506434 29.9003 0.95738 30.7058 1.85828C31.4364 2.68304 31.8022 3.97803 31.8022 5.74176ZM8.36126 9.36267L13.0813 2.45757C13.973 1.15764 15.1247 0.506434 16.5374 0.506434C17.6896 0.506434 18.6861 0.919801 19.5289 1.74456C20.3711 2.5708 20.7927 3.55872 20.7927 4.70933C20.7927 5.56029 20.5694 6.31088 20.1233 6.96159L15.8685 13.2091L21.0714 19.8699C21.5914 20.533 21.8514 21.3088 21.8514 22.1963C21.8514 23.3727 21.4425 24.3823 20.6253 25.2269C19.8075 26.0714 18.8164 26.4932 17.6519 26.4932C16.3763 26.4932 15.4038 26.0744 14.7349 25.2358L8.36126 17.2058V21.6336C8.36126 22.8975 8.14482 23.879 7.71097 24.5796C6.91818 25.8553 5.76646 26.4932 4.25482 26.4932C2.88029 26.4932 1.81426 26.0244 1.05869 25.086C0.352569 24.2226 0 23.0785 0 21.6524V5.23444C0 3.88408 0.358934 2.77105 1.07729 1.89537C1.83287 0.969741 2.87343 0.506434 4.19899 0.506434C5.46286 0.506434 6.51566 0.969741 7.3584 1.89537C7.82898 2.40861 8.12573 2.9273 8.25011 3.45291C8.32405 3.77777 8.36126 4.38397 8.36126 5.27252V9.36267Z" fill="#929DC5"/>
<path fill-rule="evenodd" clip-rule="evenodd" d="M224.235 16.4364L226.189 19.6256C226.73 20.5137 227 21.4274 227 22.3649C227 23.5541 226.597 24.5386 225.792 25.3203C224.988 26.1021 224.001 26.4932 222.833 26.4932C221.334 26.4932 220.197 25.843 219.423 24.5415L215.957 18.7628V22.2344C215.957 23.4226 215.573 24.4293 214.805 25.2546C214.037 26.0803 213.068 26.4932 211.901 26.4932C210.475 26.4932 209.394 25.974 208.656 24.9356C207.993 24.0229 207.661 22.8218 207.661 21.3335V5.55427C207.661 2.31457 209.376 0.694222 212.804 0.694222H218.077C219.81 0.694222 221.42 1.20451 222.907 2.22359C224.394 3.24366 225.482 4.56585 226.17 6.19213C226.687 7.41789 226.945 8.64959 226.945 9.88772C226.945 12.2023 226.042 14.3853 224.235 16.4364ZM197.543 18.388H201.314C202.873 18.388 204.032 18.7133 204.792 19.3631C205.687 20.1394 206.135 21.1397 206.135 22.3649C206.135 23.6164 205.686 24.6296 204.789 25.4049C204.089 26.0056 202.94 26.3053 201.342 26.3053H194.871C193.347 26.3053 192.302 26.1866 191.737 25.9493C190.63 25.4865 189.899 24.7299 189.543 23.6787C189.321 23.0033 189.211 21.8962 189.211 20.3574V6.43639C189.211 5.27243 189.248 4.49118 189.321 4.09017C189.457 3.27778 189.783 2.58949 190.299 2.02679C190.888 1.38844 191.639 0.981998 192.548 0.806465C192.978 0.731801 193.851 0.694222 195.166 0.694222H200.125C201.477 0.694222 202.264 0.707078 202.485 0.731801C203.37 0.819321 204.094 1.08188 204.66 1.51948C205.668 2.29578 206.172 3.30843 206.172 4.55942C206.172 5.90979 205.73 6.94222 204.847 7.65573C204.062 8.29309 202.99 8.61251 201.628 8.61251H197.543V10.357H200.798C201.753 10.357 202.545 10.6136 203.169 11.1268C203.831 11.6767 204.162 12.4337 204.162 13.3964C204.162 15.4356 202.942 16.4551 200.504 16.4551H197.543V18.388ZM172.951 8.55614H170.757C169.54 8.55614 168.533 8.21842 167.734 7.54299C166.886 6.81762 166.462 5.84798 166.462 4.63458C166.462 3.9092 166.662 3.21201 167.061 2.54251C167.46 1.87351 167.977 1.39784 168.61 1.11649C169.242 0.834649 170.744 0.694222 173.117 0.694222H181.487C183.539 0.694222 184.867 0.819321 185.469 1.06952C186.132 1.34493 186.67 1.81764 187.082 2.48565C187.493 3.15565 187.699 3.85926 187.699 4.597C187.699 5.75997 187.245 6.77361 186.335 7.63694C185.684 8.25007 184.621 8.55614 183.146 8.55614H181.247V21.3152C181.247 22.7031 181.013 23.7786 180.547 24.5415C179.76 25.8177 178.623 26.4556 177.136 26.4556C175.649 26.4556 174.506 25.8736 173.707 24.7107C173.203 23.9853 172.951 22.8846 172.951 21.4086V8.55614ZM163.092 16.4364L165.046 19.6256C165.587 20.5137 165.858 21.4274 165.858 22.3649C165.858 23.5541 165.455 24.5386 164.65 25.3203C163.845 26.1021 162.859 26.4932 161.692 26.4932C160.192 26.4932 159.056 25.843 158.281 24.5415L154.814 18.7628V22.2344C154.814 23.4226 154.431 24.4293 153.663 25.2546C152.894 26.0803 151.927 26.4932 150.759 26.4932C149.333 26.4932 148.252 25.974 147.515 24.9356C146.851 24.0229 146.519 22.8218 146.519 21.3335V5.55427C146.519 2.31457 148.234 0.694222 151.663 0.694222H156.935C158.668 0.694222 160.278 1.20451 161.765 2.22359C163.252 3.24366 164.34 4.56585 165.029 6.19213C165.544 7.41789 165.802 8.64959 165.802 9.88772C165.802 12.2023 164.899 14.3853 163.092 16.4364ZM128.628 22.9845C128.234 23.9348 127.829 24.6419 127.411 25.1047C126.575 26.0304 125.561 26.4932 124.369 26.4932C122.906 26.4932 121.77 25.8929 120.959 24.6919C120.48 23.9788 120.24 23.1788 120.24 22.2903C120.24 21.5525 120.412 20.8074 120.756 20.0578L128.628 3.00187C129.39 1.339 130.662 0.506327 132.444 0.506327C134.251 0.506327 135.547 1.36323 136.334 3.07752L144.28 20.2635C144.6 20.9523 144.759 21.6336 144.759 22.3091C144.759 23.3098 144.439 24.1979 143.8 24.9732C142.964 25.9873 141.895 26.4932 140.593 26.4932C139.523 26.4932 138.632 26.1555 137.919 25.4795C137.39 24.9806 136.862 24.148 136.334 22.9845H128.628ZM108.459 8.55614H106.265C105.048 8.55614 104.04 8.21842 103.242 7.54299C102.394 6.81762 101.969 5.84798 101.969 4.63458C101.969 3.9092 102.17 3.21201 102.569 2.54251C102.968 1.87351 103.485 1.39784 104.118 1.11649C104.751 0.834649 106.253 0.694222 108.625 0.694222H116.995C119.047 0.694222 120.375 0.819321 120.977 1.06952C121.641 1.34493 122.178 1.81764 122.59 2.48565C123.002 3.15565 123.207 3.85926 123.207 4.597C123.207 5.75997 122.753 6.77361 121.843 7.63694C121.192 8.25007 120.129 8.55614 118.654 8.55614H116.755V21.3152C116.755 22.7031 116.522 23.7786 116.055 24.5415C115.268 25.8177 114.131 26.4556 112.644 26.4556C111.157 26.4556 110.014 25.8736 109.215 24.7107C108.711 23.9853 108.459 22.8846 108.459 21.4086V8.55614ZM86.2628 16.6238C87.1849 16.6238 88.1677 17.0366 89.2127 17.8624C90.5148 18.9012 91.4063 19.4189 91.8858 19.4189C92.5985 19.4189 92.9546 19.0446 92.9546 18.294C92.9546 17.8812 92.7457 17.5311 92.3279 17.2428C92.1068 17.0925 90.8651 16.6124 88.604 15.798C84.9049 14.4729 83.0553 12.0208 83.0553 8.44291C83.0553 5.74167 84.0318 3.60907 85.9863 2.04558C87.694 0.682355 89.8084 0 92.3279 0C94.5035 0 96.3963 0.528578 98.0063 1.58524C99.6159 2.6424 100.421 4.00315 100.421 5.66651C100.421 6.6673 100.117 7.50245 99.509 8.17145C98.9003 8.84045 98.1103 9.17471 97.1396 9.17471C96.1193 9.17471 94.9883 8.68124 93.747 7.69331C92.9736 7.08018 92.3896 6.77361 91.9961 6.77361C91.3203 6.77361 90.9821 7.11133 90.9821 7.78626C90.9821 8.42461 91.8178 9.00659 93.4895 9.53121C95.8002 10.2699 97.588 11.1704 98.8541 12.2329C100.538 13.6595 101.38 15.661 101.38 18.2377C101.38 21.0403 100.434 23.2288 98.5407 24.8046C96.783 26.2677 94.4971 27 91.6827 27C88.8683 27 86.5392 26.2375 84.6955 24.7106C83.221 23.4977 82.4835 22.0781 82.4835 20.4514C82.4835 19.3631 82.8459 18.4567 83.5712 17.7308C84.2961 17.006 85.1934 16.6366 86.2628 16.6238Z" fill="#929DC5"/>
</svg>
