<svg width="59" height="50" viewBox="0 0 59 50" fill="none" xmlns="http://www.w3.org/2000/svg">
<path fill-rule="evenodd" clip-rule="evenodd" d="M39.6841 0.0697301C39.3836 -0.0767996 39.1376 0.0713884 39.1376 0.399422V40.7231L57.2363 49.5515C58.1381 49.9916 58.8761 49.5466 58.8761 48.5629V9.74702C58.8761 9.55361 58.7641 9.37678 58.5867 9.29025L39.6841 0.0697301Z" fill="#97A3D1"/>
<path fill-rule="evenodd" clip-rule="evenodd" d="M19.4014 31.1078L38.8196 0.323775C38.9957 0.0445846 39.3857 -0.0639559 39.6864 0.0827245L58.4436 9.23239C58.6772 9.34621 58.7603 9.63112 58.6236 9.84805L39.1397 40.7361L19.4014 31.1078Z" fill="#929DC5"/>
<path fill-rule="evenodd" clip-rule="evenodd" d="M2.61885 0.935398C1.42033 0.352485 1.0143 0.78379 1.71669 1.89374L20.1151 30.9721L39.7907 40.5404L20.2424 9.64479C20.1592 9.51341 20.04 9.40719 19.8981 9.33813L2.61885 0.935398Z" fill="#97A3D1"/>
<path fill-rule="evenodd" clip-rule="evenodd" d="M19.8953 48.8455C19.8953 49.8257 19.1516 50.269 18.2427 49.8307L1.10179 41.5646C0.49576 41.2724 0 40.4986 0 39.8452V1.44513C0 0.791672 0.49576 0.496036 1.10179 0.788367L19.65 9.73315C19.8003 9.80555 19.8953 9.95382 19.8953 10.1159V48.8455Z" fill="#929DC5"/>
</svg>
